<?xml version="1.0" encoding="UTF-8" standalone="no"?>
<svg
   xmlns:dc="http://purl.org/dc/elements/1.1/"
   xmlns:cc="http://creativecommons.org/ns#"
   xmlns:rdf="http://www.w3.org/1999/02/22-rdf-syntax-ns#"
   xmlns:svg="http://www.w3.org/2000/svg"
   xmlns="http://www.w3.org/2000/svg"
   viewBox="0 0 1706.6667 960"
   height="960"
   width="1706.6667"
   xml:space="preserve"
   id="svg2"
   version="1.1"><metadata
     id="metadata8"><rdf:RDF><cc:Work
         rdf:about=""><dc:format>image/svg+xml</dc:format><dc:type
           rdf:resource="http://purl.org/dc/dcmitype/StillImage" /></cc:Work></rdf:RDF></metadata><defs
     id="defs6"><clipPath
       id="clipPath18"
       clipPathUnits="userSpaceOnUse"><path
         id="path16"
         d="M 0,720 H 1280 V 0 H 0 Z" /></clipPath></defs><g
     transform="matrix(1.3333333,0,0,-1.3333333,0,960)"
     id="g10"><g
       id="g12"><g
         clip-path="url(#clipPath18)"
         id="g14"><g
           transform="translate(625.658,28.2439)"
           id="g20"><path
             id="path22"
             style="fill:#7641e7;fill-opacity:1;fill-rule:nonzero;stroke:none"
             d="M 0,0 C 1.965,-0.57 10.69,-4.145 12.869,-5.717 42.705,-6.1 70.039,-12.774 98.095,-21.08 L 147.066,19.835 -229.5,652.993 -360.011,536.52 -12.775,1.812 C -7.356,-0.933 -4.13,1.198 0,0" /></g><g
           transform="translate(1070.8743,298.2542)"
           id="g24"><path
             id="path26"
             style="fill:#7641e7;fill-opacity:1;fill-rule:nonzero;stroke:none"
             d="m 0,0 -96.486,161.062 -265.574,-311.088 53.428,-109.257 z" /></g><g
           transform="translate(974.3882,459.3157)"
           id="g28"><path
             id="path30"
             style="fill:#7641e7;fill-opacity:1;fill-rule:nonzero;stroke:none"
             d="M 0,0 C 89.247,74.256 185.118,-85.913 96.486,-161.062" /></g><g
           transform="translate(265.647,564.7014)"
           id="g32"><path
             id="path34"
             style="fill:#7641e7;fill-opacity:1;fill-rule:nonzero;stroke:none"
             d="M 0,0 C -63.978,101.436 65.812,217.233 130.51,116.535" /></g><g
           transform="translate(558.1509,326.2148)"
           id="g36"><path
             id="path38"
             style="fill:none;stroke:#7641e7;stroke-width:85.30799866;stroke-linecap:round;stroke-linejoin:bevel;stroke-miterlimit:10;stroke-dasharray:none;stroke-opacity:1"
             d="M 0,0 C 90.671,-191.602 231.039,-163.407 342.516,-20.417" /></g><g
           transform="translate(606.8711,38.9711)"
           id="g40"><path
             id="path42"
             style="fill:#7641e7;fill-opacity:1;fill-rule:nonzero;stroke:none"
             d="M 0,0 C 22.436,-39.874 98.963,-50.764 125.287,-25.14 Z" /></g></g></g></g></svg>